<?xml version="1.0" encoding="utf-8"?>
<!-- Generator: Adobe Illustrator 22.0.1, SVG Export Plug-In . SVG Version: 6.00 Build 0)  -->
<svg version="1.1" id="Layer_1" xmlns="http://www.w3.org/2000/svg" xmlns:xlink="http://www.w3.org/1999/xlink" x="0px" y="0px"
	 viewBox="0 0 140 140" style="enable-background:new 0 0 140 140;" xml:space="preserve">
<style type="text/css">
	.st0{fill:#6AB7DE;}
	.st1{fill:#C7EAFB;}
	.st2{fill:#FFFFFF;}
	.st3{fill:#231F20;}
</style>
<g>
	<circle class="st0" cx="71" cy="70" r="50"/>
</g>
<g>
	<g>
		<circle class="st1" cx="52" cy="39" r="1"/>
	</g>
	<g>
		<circle class="st1" cx="44" cy="40" r="1"/>
	</g>
	<g>
		<circle class="st1" cx="103" cy="52" r="1"/>
	</g>
	<g>
		<circle class="st1" cx="74" cy="103" r="1"/>
	</g>
	<g>
		<circle class="st1" cx="59" cy="33" r="1"/>
	</g>
	<g>
		<circle class="st1" cx="96" cy="41" r="1"/>
	</g>
	<g>
		<circle class="st1" cx="61" cy="40" r="1"/>
	</g>
	<g>
		<circle class="st1" cx="64" cy="99" r="1"/>
	</g>
	<g>
		<circle class="st1" cx="80" cy="96" r="1"/>
	</g>
	<g>
		<circle class="st1" cx="68" cy="111" r="1"/>
	</g>
	<g>
		<circle class="st1" cx="40" cy="47" r="1"/>
	</g>
	<g>
		<circle class="st1" cx="47" cy="33" r="2"/>
	</g>
	<g>
		<circle class="st1" cx="68" cy="30" r="2"/>
	</g>
	<g>
		<circle class="st1" cx="95" cy="48" r="2"/>
	</g>
	<g>
		<circle class="st1" cx="61" cy="106" r="2"/>
	</g>
	<g>
		<circle class="st1" cx="91" cy="34" r="2"/>
	</g>
</g>
<g>
	<path class="st2" d="M40,76H29v8c0,1.1,0.9,2,2,2h0.2c4.9,0,8.8-4,8.8-8.8V76z"/>
	<g>
		<polygon class="st2" points="105.3,114 89,89.2 93.2,85 118,101.3 		"/>
		<path d="M105.3,114.5c-0.2,0-0.3-0.1-0.4-0.2L88.6,89.5c-0.1-0.2-0.1-0.5,0.1-0.6l4.2-4.2c0.2-0.2,0.4-0.2,0.6-0.1l24.7,16.3
			c0.2,0.2,0.3,0.5,0.1,0.7c-0.2,0.2-0.5,0.3-0.7,0.1l-24.4-16l-3.7,3.7l16,24.4c0.2,0.2,0.1,0.5-0.1,0.7
			C105.5,114.5,105.4,114.5,105.3,114.5z"/>
	</g>
	<g>
		<path class="st2" d="M89.3,89.5l-2.1-2.1c-1.2-1.2-1.2-3.1,0-4.2l0,0c1.2-1.2,3.1-1.2,4.2,0l2.1,2.1L89.3,89.5z"/>
		<path d="M89.3,90.5c-0.3,0-0.5-0.1-0.7-0.3l-2.1-2.1c-0.8-0.8-1.2-1.8-1.2-2.8c0-1.1,0.4-2.1,1.2-2.8c1.5-1.5,4.1-1.5,5.7,0
			l2.1,2.1c0.4,0.4,0.4,1,0,1.4L90,90.3C89.8,90.4,89.6,90.5,89.3,90.5z M89.3,83.3c-0.5,0-1,0.2-1.4,0.6s-0.6,0.9-0.6,1.4
			s0.2,1,0.6,1.4l1.4,1.4l2.8-2.8l-1.4-1.4C90.3,83.5,89.8,83.3,89.3,83.3z"/>
	</g>
	<g>
		<polygon class="st2" points="39,114 55.3,89.2 51.1,85 26.3,101.3 		"/>
		<path d="M39,114.5c0.2,0,0.3-0.1,0.4-0.2l16.3-24.7c0.1-0.2,0.1-0.5-0.1-0.6l-4.2-4.2c-0.2-0.2-0.4-0.2-0.6-0.1L26,100.8
			c-0.2,0.2-0.3,0.5-0.1,0.7c0.2,0.2,0.5,0.3,0.7,0.1l24.4-16l3.7,3.7l-16,24.4c-0.2,0.2-0.1,0.5,0.1,0.7
			C38.8,114.5,38.9,114.5,39,114.5z"/>
	</g>
	<g>
		<path class="st2" d="M55,89.5l2.1-2.1c1.2-1.2,1.2-3.1,0-4.2h0c-1.2-1.2-3.1-1.2-4.2,0l-2.1,2.1L55,89.5z"/>
		<path d="M54.3,90.3L50.1,86c-0.4-0.4-0.4-1,0-1.4l2.1-2.1c1.5-1.5,4.1-1.5,5.7,0c0.8,0.8,1.2,1.8,1.2,2.8c0,1.1-0.4,2.1-1.2,2.8
			l-2.1,2.1c-0.2,0.2-0.5,0.3-0.7,0.3S54.5,90.4,54.3,90.3z M53.6,83.9l-1.4,1.4l2.8,2.8l1.4-1.4c0.4-0.4,0.6-0.9,0.6-1.4
			s-0.2-1-0.6-1.4s-0.9-0.6-1.4-0.6S54,83.5,53.6,83.9z"/>
	</g>
	<path class="st2" d="M40,64H29v-8c0-1.1,0.9-2,2-2h0.2c4.9,0,8.8,4,8.8,8.8V64z"/>
	<path class="st2" d="M88,85H47.6c-1.7,0-3.3-0.4-4.8-1.2L25,74v-8l17.7-9.8c1.5-0.8,3.1-1.2,4.8-1.2H88c8.3,0,15,6.7,15,15v0
		C103,78.3,96.3,85,88,85z"/>
	<g>
		<circle cx="57" cy="70" r="1"/>
	</g>
	<g>
		<circle cx="2" cy="70" r="1"/>
	</g>
	<g>
		<circle cx="51" cy="49" r="1"/>
	</g>
	<g>
		<circle cx="51" cy="70" r="1"/>
	</g>
	<g>
		<circle cx="57" cy="62" r="1"/>
	</g>
	<g>
		<circle cx="51" cy="62" r="1"/>
	</g>
	<g>
		<circle cx="91" cy="70" r="1"/>
	</g>
	<g>
		<circle cx="85" cy="70" r="1"/>
	</g>
	<g>
		<circle cx="91" cy="62" r="1"/>
	</g>
	<g>
		<circle cx="85" cy="62" r="1"/>
	</g>
	<path class="st1" d="M72,94c3.3,0,6-2.7,6-6H66C66,91.3,68.7,94,72,94z"/>
	<rect x="65" y="85" class="st2" width="14" height="3"/>
	<path class="st2" d="M82,55H60l3.8-4.6c0.8-0.9,1.9-1.4,3.1-1.4H80c1.1,0,2,0.9,2,2V55z"/>
	<g>
		<polygon class="st2" points="138.5,83 106,73 106,67 138.5,57 		"/>
		<path d="M138.5,83.5c0,0-0.1,0-0.1,0l-32.5-10c-0.2-0.1-0.4-0.3-0.4-0.5v-6c0-0.2,0.1-0.4,0.4-0.5l32.5-10
			c0.3-0.1,0.5,0.1,0.6,0.3c0.1,0.3-0.1,0.5-0.3,0.6l-32.1,9.9v5.3l32.1,9.9c0.2,0.1,0.4,0.3,0.4,0.5c0,0,0,0.1,0,0.1
			C138.9,83.4,138.7,83.5,138.5,83.5z"/>
	</g>
	<g>
		<path d="M38,73h-9c-0.6,0-1-0.4-1-1v-4c0-0.6,0.4-1,1-1h9c1.7,0,3,1.3,3,3S39.7,73,38,73z M30,71h8c0.6,0,1-0.4,1-1s-0.4-1-1-1h-8
			V71z"/>
	</g>
	<path class="st2" d="M79,30c-3.9,0-7,3.1-7,7v12h4V37c0-1.7,1.3-3,3-3h4v-4H79z"/>
	<path d="M88,54h-5v-3c0-1.7-1.3-3-3-3h-3V37c0-1.1,0.9-2,2-2h3c0,0.6,0.4,1,1,1s1-0.4,1-1v-1v-4v-1c0-0.6-0.4-1-1-1s-1,0.4-1,1h-3
		c-4.4,0-8,3.6-8,8v11h-4.1c-1.5,0-2.9,0.7-3.8,1.8L59.5,54h-12c-1.8,0-3.7,0.5-5.3,1.4l-3.1,1.7c-1.8-2.5-4.7-4.1-7.9-4.1H31
		c-1.7,0-3,1.3-3,3v7.2l-3.5,1.9C24.2,65.3,24,65.6,24,66v3h-2.1l0.9-2.4c0.4-1,0.1-2-0.5-2.8c-0.9-1-2.6-1-3.6,0
		c-0.7,0.7-0.9,1.8-0.5,2.8l1,2.8C19.1,69.6,19,69.8,19,70s0.1,0.4,0.2,0.6l-1,2.8c-0.4,1-0.1,2,0.5,2.8c0.5,0.5,1.1,0.8,1.8,0.8
		s1.3-0.3,1.8-0.8c0.7-0.7,0.9-1.8,0.5-2.8L21.9,71H24v3c0,0.4,0.2,0.7,0.5,0.9l3.5,1.9V84c0,1.7,1.3,3,3,3h0.2
		c3.3,0,6.2-1.6,7.9-4.1l3.1,1.7c1.6,0.9,3.5,1.4,5.3,1.4H64v2c0,0.6,0.4,1,1,1h0.1c0.5,3.4,3.4,6,6.9,6c3.5,0,6.4-2.6,6.9-6H79
		c0.6,0,1-0.4,1-1v-2h8c8.8,0,16-7.2,16-16S96.8,54,88,54z M73,37c0-3.3,2.7-6,6-6h3v2h-3c-2.2,0-4,1.8-4,4v11h-2V37z M64.6,51.1
		c0.6-0.7,1.4-1.1,2.3-1.1H72h4h4c0.6,0,1,0.4,1,1v3H62.1L64.6,51.1z M30,56c0-0.6,0.4-1,1-1h0.2c2.5,0,4.8,1.2,6.2,3.1L30,62.1V56z
		 M31.2,85H31c-0.6,0-1-0.4-1-1v-6.1l7.4,4.1C35.9,83.8,33.7,85,31.2,85z M53,84h-5.4c-1.5,0-3-0.4-4.3-1.1L26,73.4v-6.8l17.2-9.5
		c1.3-0.7,2.8-1.1,4.3-1.1H53V84z M72,93c-2.4,0-4.4-1.7-4.9-4h9.8C76.4,91.3,74.4,93,72,93z M78,87H66v-1h12V87z M87,84h-8H65H55
		V56h5h22h5V84z M89,83.9V56.1c7.3,0.5,13,6.6,13,13.9S96.3,83.4,89,83.9z"/>
	<g>
		<g>
			<path d="M71,61c5,0,9,4,9,9v0c0,5-4,9-9,9h0c-5,0-9-4-9-9v0C62,65,66,61,71,61L71,61z M71,60c-5.5,0-10,4.5-10,10s4.5,10,10,10
				s10-4.5,10-10S76.5,60,71,60L71,60z"/>
		</g>
	</g>
	<g>
		<path class="st1" d="M71,76L71,76c-3.3,0-6-2.7-6-6v0c0-3.3,2.7-6,6-6h0c3.3,0,6,2.7,6,6v0C77,73.3,74.3,76,71,76z"/>
		<path class="st3" d="M71,77c-3.9,0-7-3.1-7-7c0-3.9,3.1-7,7-7c3.9,0,7,3.1,7,7C78,73.9,74.9,77,71,77z M71,65c-2.8,0-5,2.2-5,5
			s2.2,5,5,5s5-2.2,5-5S73.8,65,71,65z"/>
	</g>
	<g>
		<circle cx="57" cy="78" r="1"/>
	</g>
	<g>
		<circle cx="51" cy="78" r="1"/>
	</g>
	<g>
		<circle cx="91" cy="78" r="1"/>
	</g>
	<g>
		<circle cx="85" cy="78" r="1"/>
	</g>
	<g>
		<path d="M61,50h-6c-0.6,0-1-0.4-1-1s0.4-1,1-1h6c0.6,0,1,0.4,1,1S61.6,50,61,50z"/>
	</g>
	<g>
		<path d="M26,56h-7c-0.6,0-1-0.4-1-1s0.4-1,1-1h7c0.6,0,1,0.4,1,1S26.6,56,26,56z"/>
	</g>
	<g>
		<path d="M26,86h-7c-0.6,0-1-0.4-1-1s0.4-1,1-1h7c0.6,0,1,0.4,1,1S26.6,86,26,86z"/>
	</g>
	<g>
		<path d="M15,86h-1c-0.6,0-1-0.4-1-1s0.4-1,1-1h1c0.6,0,1,0.4,1,1S15.6,86,15,86z"/>
	</g>
	<g>
		<path d="M14,71H6c-0.6,0-1-0.4-1-1s0.4-1,1-1h8c0.6,0,1,0.4,1,1S14.6,71,14,71z"/>
	</g>
	<g>
		<path d="M16,67h-5c-0.6,0-1-0.4-1-1s0.4-1,1-1h5c0.6,0,1,0.4,1,1S16.6,67,16,67z"/>
	</g>
	<g>
		<path d="M15,75H8c-0.6,0-1-0.4-1-1s0.4-1,1-1h7c0.6,0,1,0.4,1,1S15.6,75,15,75z"/>
	</g>
	<g>
		<g>
			<path d="M67.5,70c-0.3,0-0.5-0.2-0.5-0.5c0-1.9,1.6-3.5,3.5-3.5c0.3,0,0.5,0.2,0.5,0.5S70.8,67,70.5,67c-1.4,0-2.5,1.1-2.5,2.5
				C68,69.8,67.8,70,67.5,70z"/>
		</g>
	</g>
	<g>
		<path class="st2" d="M106,73h-3c-1.7,0-3-1.3-3-3l0,0c0-1.7,1.3-3,3-3h3V73z"/>
		<path d="M106,74h-3c-2.2,0-4-1.8-4-4c0-2.2,1.8-4,4-4h3c0.6,0,1,0.4,1,1v6C107,73.6,106.6,74,106,74z M103,68c-1.1,0-2,0.9-2,2
			c0,1.1,0.9,2,2,2h2v-4H103z"/>
	</g>
</g>
</svg>
